<mxfile host="app.diagrams.net" agent="Mozilla/5.0 (Windows NT 10.0; Win64; x64) AppleWebKit/537.36 (KHTML, like Gecko) Chrome/131.0.0.0 Safari/537.36" version="26.0.2">
  <diagram name="第 1 页" id="zuvDvYUHsLtVDL6s6j0I">
    <mxGraphModel dx="993" dy="525" grid="1" gridSize="10" guides="1" tooltips="1" connect="1" arrows="1" fold="1" page="1" pageScale="1" pageWidth="2339" pageHeight="3300" math="0" shadow="0">
      <root>
        <mxCell id="0" />
        <mxCell id="1" parent="0" />
        <mxCell id="y8jx_cZr0RisDGSgqpCn-1" value="" style="ellipse;html=1;shape=startState;fillColor=#000000;strokeColor=#ff0000;" vertex="1" parent="1">
          <mxGeometry x="1240" y="80" width="30" height="30" as="geometry" />
        </mxCell>
        <mxCell id="y8jx_cZr0RisDGSgqpCn-2" value="" style="edgeStyle=orthogonalEdgeStyle;html=1;verticalAlign=bottom;endArrow=open;endSize=8;strokeColor=#ff0000;rounded=0;entryX=0.5;entryY=0;entryDx=0;entryDy=0;" edge="1" source="y8jx_cZr0RisDGSgqpCn-1" parent="1" target="y8jx_cZr0RisDGSgqpCn-3">
          <mxGeometry relative="1" as="geometry">
            <mxPoint x="1255" y="170" as="targetPoint" />
          </mxGeometry>
        </mxCell>
        <mxCell id="y8jx_cZr0RisDGSgqpCn-3" value="上中下游企业选择自己所属的类型进行注册" style="rounded=1;whiteSpace=wrap;html=1;arcSize=40;fontColor=#000000;fillColor=#ffffc0;strokeColor=#ff0000;" vertex="1" parent="1">
          <mxGeometry x="1192.5" y="160" width="125" height="50" as="geometry" />
        </mxCell>
        <mxCell id="y8jx_cZr0RisDGSgqpCn-4" value="" style="edgeStyle=orthogonalEdgeStyle;html=1;verticalAlign=bottom;endArrow=open;endSize=8;strokeColor=#ff0000;rounded=0;entryX=0.5;entryY=0;entryDx=0;entryDy=0;" edge="1" source="y8jx_cZr0RisDGSgqpCn-3" parent="1" target="y8jx_cZr0RisDGSgqpCn-5">
          <mxGeometry relative="1" as="geometry">
            <mxPoint x="1255" y="270" as="targetPoint" />
          </mxGeometry>
        </mxCell>
        <mxCell id="y8jx_cZr0RisDGSgqpCn-5" value="企业填写基本信息" style="rounded=1;whiteSpace=wrap;html=1;arcSize=40;fontColor=#000000;fillColor=#ffffc0;strokeColor=#ff0000;" vertex="1" parent="1">
          <mxGeometry x="1195" y="270" width="120" height="40" as="geometry" />
        </mxCell>
        <mxCell id="y8jx_cZr0RisDGSgqpCn-6" value="" style="edgeStyle=orthogonalEdgeStyle;html=1;verticalAlign=bottom;endArrow=open;endSize=8;strokeColor=#ff0000;rounded=0;entryX=0.5;entryY=0;entryDx=0;entryDy=0;" edge="1" source="y8jx_cZr0RisDGSgqpCn-5" parent="1" target="y8jx_cZr0RisDGSgqpCn-7">
          <mxGeometry relative="1" as="geometry">
            <mxPoint x="1255" y="380" as="targetPoint" />
          </mxGeometry>
        </mxCell>
        <mxCell id="y8jx_cZr0RisDGSgqpCn-7" value="企业上传资质证明文件进行资质认证" style="rounded=1;whiteSpace=wrap;html=1;arcSize=40;fontColor=#000000;fillColor=#ffffc0;strokeColor=#ff0000;" vertex="1" parent="1">
          <mxGeometry x="1192.5" y="370" width="125" height="50" as="geometry" />
        </mxCell>
        <mxCell id="y8jx_cZr0RisDGSgqpCn-8" value="" style="edgeStyle=orthogonalEdgeStyle;html=1;verticalAlign=bottom;endArrow=open;endSize=8;strokeColor=#ff0000;rounded=0;entryX=0;entryY=0.5;entryDx=0;entryDy=0;" edge="1" source="y8jx_cZr0RisDGSgqpCn-7" parent="1" target="y8jx_cZr0RisDGSgqpCn-11">
          <mxGeometry relative="1" as="geometry">
            <mxPoint x="1255" y="490" as="targetPoint" />
            <Array as="points" />
          </mxGeometry>
        </mxCell>
        <mxCell id="y8jx_cZr0RisDGSgqpCn-11" value="认证成功" style="rhombus;whiteSpace=wrap;html=1;fontColor=#000000;fillColor=#ffffc0;strokeColor=#ff0000;" vertex="1" parent="1">
          <mxGeometry x="1380" y="375" width="80" height="40" as="geometry" />
        </mxCell>
        <mxCell id="y8jx_cZr0RisDGSgqpCn-12" value="no" style="edgeStyle=orthogonalEdgeStyle;html=1;align=left;verticalAlign=bottom;endArrow=open;endSize=8;strokeColor=#ff0000;rounded=0;entryX=0;entryY=0.5;entryDx=0;entryDy=0;" edge="1" source="y8jx_cZr0RisDGSgqpCn-11" parent="1" target="y8jx_cZr0RisDGSgqpCn-14">
          <mxGeometry x="-1" relative="1" as="geometry">
            <mxPoint x="1510" y="395" as="targetPoint" />
          </mxGeometry>
        </mxCell>
        <mxCell id="y8jx_cZr0RisDGSgqpCn-13" value="yes" style="edgeStyle=orthogonalEdgeStyle;html=1;align=left;verticalAlign=top;endArrow=open;endSize=8;strokeColor=#ff0000;rounded=0;entryX=0.5;entryY=0;entryDx=0;entryDy=0;" edge="1" source="y8jx_cZr0RisDGSgqpCn-11" parent="1" target="y8jx_cZr0RisDGSgqpCn-16">
          <mxGeometry x="-1" relative="1" as="geometry">
            <mxPoint x="1420" y="470" as="targetPoint" />
          </mxGeometry>
        </mxCell>
        <mxCell id="y8jx_cZr0RisDGSgqpCn-14" value="重新上传证明文件" style="rounded=1;whiteSpace=wrap;html=1;arcSize=40;fontColor=#000000;fillColor=#ffffc0;strokeColor=#ff0000;" vertex="1" parent="1">
          <mxGeometry x="1520" y="375" width="120" height="40" as="geometry" />
        </mxCell>
        <mxCell id="y8jx_cZr0RisDGSgqpCn-15" value="" style="edgeStyle=orthogonalEdgeStyle;html=1;verticalAlign=bottom;endArrow=open;endSize=8;strokeColor=#ff0000;rounded=0;entryX=0.5;entryY=0;entryDx=0;entryDy=0;" edge="1" source="y8jx_cZr0RisDGSgqpCn-14" parent="1" target="y8jx_cZr0RisDGSgqpCn-11">
          <mxGeometry relative="1" as="geometry">
            <mxPoint x="1450" y="280" as="targetPoint" />
            <Array as="points">
              <mxPoint x="1580" y="340" />
              <mxPoint x="1420" y="340" />
            </Array>
          </mxGeometry>
        </mxCell>
        <mxCell id="y8jx_cZr0RisDGSgqpCn-16" value="成功入驻平台，发送认证成功邮件" style="rounded=1;whiteSpace=wrap;html=1;arcSize=40;fontColor=#000000;fillColor=#ffffc0;strokeColor=#ff0000;" vertex="1" parent="1">
          <mxGeometry x="1360" y="470" width="120" height="40" as="geometry" />
        </mxCell>
        <mxCell id="y8jx_cZr0RisDGSgqpCn-17" value="" style="edgeStyle=orthogonalEdgeStyle;html=1;verticalAlign=bottom;endArrow=open;endSize=8;strokeColor=#ff0000;rounded=0;entryX=0.5;entryY=0;entryDx=0;entryDy=0;" edge="1" source="y8jx_cZr0RisDGSgqpCn-16" parent="1" target="y8jx_cZr0RisDGSgqpCn-22">
          <mxGeometry relative="1" as="geometry">
            <mxPoint x="1420" y="580" as="targetPoint" />
          </mxGeometry>
        </mxCell>
        <mxCell id="y8jx_cZr0RisDGSgqpCn-18" value="根据企业注册时所属类型和基本信息给该企业推荐上下游合作企业" style="rounded=1;whiteSpace=wrap;html=1;arcSize=40;fontColor=#000000;fillColor=#ffffc0;strokeColor=#ff0000;" vertex="1" parent="1">
          <mxGeometry x="1345" y="650" width="150" height="60" as="geometry" />
        </mxCell>
        <mxCell id="y8jx_cZr0RisDGSgqpCn-19" value="" style="edgeStyle=orthogonalEdgeStyle;html=1;verticalAlign=bottom;endArrow=open;endSize=8;strokeColor=#ff0000;rounded=0;entryX=0.5;entryY=0;entryDx=0;entryDy=0;" edge="1" source="y8jx_cZr0RisDGSgqpCn-18" parent="1" target="y8jx_cZr0RisDGSgqpCn-20">
          <mxGeometry relative="1" as="geometry">
            <mxPoint x="1420" y="750" as="targetPoint" />
          </mxGeometry>
        </mxCell>
        <mxCell id="y8jx_cZr0RisDGSgqpCn-20" value="" style="ellipse;html=1;shape=endState;fillColor=#000000;strokeColor=#ff0000;" vertex="1" parent="1">
          <mxGeometry x="1405" y="760" width="30" height="30" as="geometry" />
        </mxCell>
        <mxCell id="y8jx_cZr0RisDGSgqpCn-22" value="中游企业上传BOM表" style="rounded=1;whiteSpace=wrap;html=1;arcSize=40;fontColor=#000000;fillColor=#ffffc0;strokeColor=#ff0000;" vertex="1" parent="1">
          <mxGeometry x="1355" y="560" width="130" height="40" as="geometry" />
        </mxCell>
        <mxCell id="y8jx_cZr0RisDGSgqpCn-23" value="" style="edgeStyle=orthogonalEdgeStyle;html=1;verticalAlign=bottom;endArrow=open;endSize=8;strokeColor=#ff0000;rounded=0;entryX=0.5;entryY=0;entryDx=0;entryDy=0;" edge="1" source="y8jx_cZr0RisDGSgqpCn-22" parent="1" target="y8jx_cZr0RisDGSgqpCn-18">
          <mxGeometry relative="1" as="geometry">
            <mxPoint x="1420" y="650" as="targetPoint" />
          </mxGeometry>
        </mxCell>
      </root>
    </mxGraphModel>
  </diagram>
</mxfile>
